<svg width="423" height="141" viewBox="0 0 423 141" fill="none" xmlns="http://www.w3.org/2000/svg">
<rect x="0.691132" width="421.622" height="141" fill="#2E51A2"/>
<path d="M80.6406 35.1818H99.5951V79.9091C99.5951 85.2273 98.3224 89.8295 95.7769 93.7159C93.2542 97.5795 89.7315 100.568 85.2088 102.682C80.686 104.773 75.436 105.818 69.4588 105.818C63.436 105.818 58.1633 104.773 53.6406 102.682C49.1178 100.568 45.5951 97.5795 43.0724 93.7159C40.5724 89.8295 39.3224 85.2273 39.3224 79.9091V35.1818H58.2769V78.2727C58.2769 80.4318 58.7542 82.3636 59.7088 84.0682C60.6633 85.75 61.9815 87.0682 63.6633 88.0227C65.3678 88.9773 67.2997 89.4545 69.4588 89.4545C71.6406 89.4545 73.5724 88.9773 75.2542 88.0227C76.936 87.0682 78.2542 85.75 79.2088 84.0682C80.1633 82.3636 80.6406 80.4318 80.6406 78.2727V35.1818ZM118.149 105L105.058 52.6364H123.876L129.876 84.5455H130.285L136.967 52.6364H155.24L162.195 84.2727H162.604L168.331 52.6364H187.149L174.058 105H153.74L146.376 76.9091H145.831L138.467 105H118.149ZM226.831 82.0909V52.6364H245.649V105H227.785V95.0455H227.24C226.104 98.3864 224.115 101 221.274 102.886C218.433 104.75 215.058 105.682 211.149 105.682C207.49 105.682 204.285 104.841 201.535 103.159C198.808 101.477 196.683 99.1591 195.16 96.2045C193.66 93.25 192.899 89.8636 192.876 86.0455V52.6364H211.695V82.0909C211.717 84.6818 212.376 86.7159 213.672 88.1932C214.99 89.6705 216.831 90.4091 219.195 90.4091C220.763 90.4091 222.115 90.0795 223.251 89.4205C224.41 88.7386 225.297 87.7841 225.91 86.5568C226.547 85.3068 226.854 83.8182 226.831 82.0909ZM281.811 105H254.947V35.1818H281.538C288.72 35.1818 294.925 36.5795 300.152 39.375C305.402 42.1477 309.447 46.1477 312.288 51.375C315.152 56.5795 316.584 62.8182 316.584 70.0909C316.584 77.3636 315.163 83.6136 312.322 88.8409C309.481 94.0455 305.459 98.0455 300.254 100.841C295.05 103.614 288.902 105 281.811 105ZM273.902 88.9091H281.129C284.584 88.9091 287.527 88.3523 289.959 87.2386C292.413 86.125 294.277 84.2045 295.55 81.4773C296.845 78.75 297.493 74.9545 297.493 70.0909C297.493 65.2273 296.834 61.4318 295.516 58.7045C294.22 55.9773 292.311 54.0568 289.788 52.9432C287.288 51.8295 284.22 51.2727 280.584 51.2727H273.902V88.9091ZM325.354 105V35.1818H355.626C360.945 35.1818 365.41 35.8977 369.024 37.3295C372.66 38.7614 375.399 40.7841 377.24 43.3977C379.104 46.0114 380.035 49.0909 380.035 52.6364C380.035 55.2045 379.467 57.5455 378.331 59.6591C377.217 61.7727 375.649 63.5455 373.626 64.9773C371.604 66.3864 369.24 67.3636 366.535 67.9091V68.5909C369.535 68.7045 372.263 69.4659 374.717 70.875C377.172 72.2614 379.126 74.1818 380.581 76.6364C382.035 79.0682 382.763 81.9318 382.763 85.2273C382.763 89.0455 381.763 92.4432 379.763 95.4205C377.785 98.3977 374.967 100.739 371.308 102.443C367.649 104.148 363.285 105 358.217 105H325.354ZM344.308 89.8636H353.172C356.354 89.8636 358.74 89.2727 360.331 88.0909C361.922 86.8864 362.717 85.1136 362.717 82.7727C362.717 81.1364 362.342 79.75 361.592 78.6136C360.842 77.4773 359.774 76.6136 358.388 76.0227C357.024 75.4318 355.376 75.1364 353.445 75.1364H344.308V89.8636ZM344.308 63.4091H352.081C353.74 63.4091 355.206 63.1477 356.479 62.625C357.751 62.1023 358.74 61.3523 359.445 60.375C360.172 59.375 360.535 58.1591 360.535 56.7273C360.535 54.5682 359.763 52.9205 358.217 51.7841C356.672 50.625 354.717 50.0455 352.354 50.0455H344.308V63.4091Z" fill="white"/>
</svg>
